<svg width="96" height="22" viewBox="0 0 96 22" fill="none" xmlns="http://www.w3.org/2000/svg">
<path d="M12.0034 0.542969H0V21.2722H12.0034C18.1968 21.2722 22.5481 16.6227 22.5481 10.9076C22.5481 4.70879 18.1968 0.542969 12.0034 0.542969ZM11.2785 16.9611H5.16569V4.85413H11.2785C15.4223 4.85413 17.3589 7.18035 17.3589 10.9076C17.3589 14.6348 15.4223 16.9611 11.2785 16.9611Z" fill="#1B1B1B"/>
<path d="M20.2285 20.4817V21.2722H25.9224L28.245 18.2774H39.343V21.2722H44.4544V0.542969H36.3952L20.2285 20.4817ZM39.343 4.82245V13.9489H31.6018L38.6796 4.82245H39.343Z" fill="#1B1B1B"/>
<path d="M70.5383 7.36033C70.5383 3.60119 67.4391 0.542969 63.6297 0.542969H49.0391V21.2722H54.1504V14.1777H60.2837L65.6149 21.2722H71.4323V20.4817L65.9474 13.7818C68.6201 12.8396 70.5383 10.3174 70.5383 7.36033ZM62.9261 9.80705H54.1504V4.87149H62.9261C64.3051 4.87149 65.427 5.97855 65.427 7.33929C65.427 8.69997 64.3051 9.80705 62.9261 9.80705Z" fill="#1B1B1B"/>
<path d="M84.3645 8.5193C81.2998 8.04054 79.1143 7.40838 79.1143 6.32216C79.1143 5.39076 80.8459 4.68158 84.0481 4.68158C89.7427 4.68158 93.4177 6.7379 93.4177 6.7379H94.2739V1.68656C94.2739 1.68656 89.2955 0 83.8596 0C77.9226 0 73.4453 2.77086 73.4453 6.60408C73.4453 11.2611 79.064 12.3389 83.7494 13.0298C88.3937 13.7147 90.6073 14.0898 90.6073 15.3412C90.6073 16.3021 89.0744 17.2234 84.5036 17.2234C79.236 17.2234 74.4819 15.019 74.4819 15.019H73.5624V19.961C73.5624 19.961 78.4028 21.8252 84.5845 21.8252C91.8818 21.8252 95.7948 18.866 95.7948 15.1759C95.7948 9.85346 89.8918 9.3828 84.3645 8.5193Z" fill="#1B1B1B"/>
</svg>
